<svg width="213" height="106" viewBox="0 0 213 106" fill="none" xmlns="http://www.w3.org/2000/svg">
<g filter="url(#filter0_d_1423_2794)">
<path d="M25.7412 50.5345L25.7412 30.5345L93.7412 30.5345V62.0345" stroke="#216EB8" stroke-width="5"/>
<path d="M34.7412 54.0344C40.2412 56.9837 52.7412 65.5344 97.7412 65.0342C73.2412 73.5344 46.2412 66.2775 29.2419 58.0353C12.2426 49.7931 -10.7589 26.5344 21.7412 18.5343C12.7412 26.5344 0.241211 35.5344 34.7412 54.0344Z" fill="#216EB8"/>
<path d="M29.1677 74.5345H89.2412L98.2412 89.5345H21.2412L29.1677 74.5345Z" fill="#263585"/>
<path d="M31.2412 76.5345H36.2412V79.5345H30.2412L31.2412 76.5345Z" fill="white"/>
<path d="M29.7412 81.5345H34.2412V84.5345H28.2412L29.7412 81.5345Z" fill="white"/>
<rect x="37.2412" y="76.5345" width="4" height="3" fill="white"/>
<rect x="35.2412" y="81.5345" width="4" height="3" fill="white"/>
<rect x="37.2412" y="76.5345" width="4" height="3" fill="white"/>
<rect x="35.2412" y="81.5345" width="4" height="3" fill="white"/>
<rect x="42.2412" y="76.5345" width="4" height="3" fill="white"/>
<rect x="40.2412" y="81.5345" width="4" height="3" fill="white"/>
<rect x="47.2412" y="76.5345" width="4" height="3" fill="white"/>
<rect x="45.2412" y="81.5345" width="4" height="3" fill="white"/>
<rect x="52.2412" y="76.5345" width="3" height="3" fill="white"/>
<rect x="50.2412" y="81.5345" width="3" height="3" fill="white"/>
<rect x="56.2412" y="76.5345" width="3" height="3" fill="white"/>
<rect x="54.2412" y="81.5345" width="3" height="3" fill="white"/>
<rect x="60.2412" y="76.5345" width="3" height="3" fill="white"/>
<rect x="58.2412" y="81.5345" width="3" height="3" fill="white"/>
<rect x="68.2412" y="76.5345" width="3" height="3" fill="white"/>
<rect x="66.2412" y="81.5345" width="3" height="3" fill="white"/>
<rect x="72.2412" y="76.5345" width="3" height="3" fill="white"/>
<rect x="70.2412" y="81.5345" width="3" height="3" fill="white"/>
<rect x="76.2412" y="76.5345" width="3" height="3" fill="white"/>
<rect x="74.2412" y="81.5345" width="3" height="3" fill="white"/>
<rect x="80.2412" y="76.5345" width="3" height="3" fill="white"/>
<rect x="78.2412" y="81.5345" width="3" height="3" fill="white"/>
<rect x="82.2412" y="81.5345" width="3" height="3" fill="white"/>
<path d="M84.2412 76.5345H87.2412L88.2412 79.5345H84.2412V76.5345Z" fill="white"/>
<path d="M86.2412 81.5345H88.7412L90.2412 84.5345H86.2412V81.5345Z" fill="white"/>
<rect x="64.2412" y="76.5345" width="3" height="3" fill="white"/>
<rect x="62.2412" y="81.5345" width="3" height="3" fill="white"/>
<path d="M81.2412 73.0345C71.2412 73.5345 59.2412 76.0345 15.5635 63.4584C36.6834 79.1544 66.2424 80.3444 86.2413 77.5346C106.24 74.7248 137.659 59.5985 108.404 41.9511C114.319 52.4429 119.241 66.5345 81.2412 73.0345Z" fill="#263585"/>
<circle cx="59.2412" cy="49.5344" r="6" stroke="#DB7727" stroke-width="2"/>
<line x1="59.2412" y1="39.5344" x2="59.2412" y2="48.5344" stroke="#DB7727" stroke-width="2"/>
<path d="M131.755 53H129.558V42.3359H131.755V53ZM137.708 45.0752L137.774 45.9907C138.34 45.2827 139.099 44.9287 140.052 44.9287C140.891 44.9287 141.516 45.1753 141.927 45.6685C142.337 46.1616 142.547 46.8989 142.556 47.8804V53H140.44V47.9316C140.44 47.4824 140.342 47.1577 140.147 46.9575C139.951 46.7524 139.627 46.6499 139.173 46.6499C138.577 46.6499 138.13 46.9038 137.832 47.4116V53H135.716V45.0752H137.708ZM149.234 50.4146L150.706 45.0752H152.918L150.245 53H148.223L145.55 45.0752H147.762L149.234 50.4146ZM159.501 53.1465C158.338 53.1465 157.391 52.79 156.659 52.0771C155.931 51.3643 155.567 50.4146 155.567 49.228V49.0229C155.567 48.2271 155.721 47.5166 156.029 46.8916C156.337 46.2617 156.771 45.7783 157.333 45.4414C157.899 45.0996 158.544 44.9287 159.266 44.9287C160.35 44.9287 161.202 45.2705 161.822 45.9541C162.447 46.6377 162.76 47.6069 162.76 48.8618V49.7261H157.713C157.782 50.2437 157.987 50.6587 158.329 50.9712C158.675 51.2837 159.112 51.4399 159.64 51.4399C160.455 51.4399 161.092 51.1445 161.551 50.5537L162.591 51.7183C162.274 52.1675 161.844 52.519 161.302 52.7729C160.76 53.022 160.16 53.1465 159.501 53.1465ZM159.259 46.6426C158.839 46.6426 158.497 46.7842 158.233 47.0674C157.975 47.3506 157.809 47.7559 157.735 48.2832H160.68V48.1147C160.67 47.646 160.543 47.2847 160.299 47.0308C160.055 46.772 159.708 46.6426 159.259 46.6426ZM168.017 45.0752L168.083 45.9907C168.649 45.2827 169.408 44.9287 170.36 44.9287C171.2 44.9287 171.825 45.1753 172.235 45.6685C172.646 46.1616 172.855 46.8989 172.865 47.8804V53H170.749V47.9316C170.749 47.4824 170.651 47.1577 170.456 46.9575C170.26 46.7524 169.936 46.6499 169.481 46.6499C168.886 46.6499 168.439 46.9038 168.141 47.4116V53H166.024V45.0752H168.017ZM179.111 43.127V45.0752H180.466V46.6279H179.111V50.583C179.111 50.876 179.167 51.0859 179.279 51.2129C179.392 51.3398 179.606 51.4033 179.924 51.4033C180.158 51.4033 180.366 51.3862 180.546 51.3521V52.9561C180.131 53.083 179.704 53.1465 179.265 53.1465C177.78 53.1465 177.023 52.397 176.994 50.8979V46.6279H175.837V45.0752H176.994V43.127H179.111ZM183.196 48.9644C183.196 48.1782 183.347 47.4775 183.65 46.8623C183.952 46.2471 184.387 45.771 184.953 45.4341C185.525 45.0972 186.186 44.9287 186.938 44.9287C188.008 44.9287 188.879 45.2559 189.553 45.9102C190.232 46.5645 190.61 47.4531 190.688 48.5762L190.703 49.1182C190.703 50.334 190.364 51.3105 189.685 52.0479C189.006 52.7803 188.096 53.1465 186.953 53.1465C185.81 53.1465 184.897 52.7803 184.214 52.0479C183.535 51.3154 183.196 50.3193 183.196 49.0596V48.9644ZM185.312 49.1182C185.312 49.8701 185.454 50.4463 185.737 50.8467C186.02 51.2422 186.426 51.4399 186.953 51.4399C187.466 51.4399 187.866 51.2446 188.154 50.854C188.442 50.4585 188.586 49.8286 188.586 48.9644C188.586 48.2271 188.442 47.6558 188.154 47.2505C187.866 46.8452 187.461 46.6426 186.938 46.6426C186.421 46.6426 186.02 46.8452 185.737 47.2505C185.454 47.6509 185.312 48.2734 185.312 49.1182ZM198.56 47.0601C198.272 47.021 198.018 47.0015 197.798 47.0015C196.997 47.0015 196.472 47.2725 196.223 47.8145V53H194.107V45.0752H196.106L196.165 46.02C196.59 45.2925 197.178 44.9287 197.93 44.9287C198.164 44.9287 198.384 44.9604 198.589 45.0239L198.56 47.0601ZM204.776 50.0044L206.241 45.0752H208.511L205.325 54.2305L205.15 54.6479C204.676 55.6831 203.895 56.2007 202.806 56.2007C202.498 56.2007 202.186 56.1543 201.868 56.0615V54.4575L202.191 54.4648C202.591 54.4648 202.889 54.4038 203.084 54.2817C203.284 54.1597 203.441 53.957 203.553 53.6738L203.802 53.022L201.026 45.0752H203.304L204.776 50.0044ZM152.779 68.2021C152.779 67.7871 152.633 67.4697 152.34 67.25C152.047 67.0254 151.519 66.791 150.758 66.5469C149.996 66.2979 149.393 66.0537 148.948 65.8145C147.737 65.1602 147.132 64.2788 147.132 63.1704C147.132 62.5942 147.293 62.0815 147.615 61.6323C147.943 61.1782 148.409 60.8242 149.014 60.5703C149.625 60.3164 150.308 60.1895 151.065 60.1895C151.827 60.1895 152.506 60.3286 153.101 60.6069C153.697 60.8804 154.158 61.2686 154.486 61.7715C154.818 62.2744 154.984 62.8457 154.984 63.4854H152.786C152.786 62.9971 152.633 62.6187 152.325 62.3501C152.017 62.0767 151.585 61.9399 151.029 61.9399C150.491 61.9399 150.074 62.0547 149.776 62.2842C149.478 62.5088 149.329 62.8066 149.329 63.1777C149.329 63.5244 149.503 63.8149 149.849 64.0493C150.201 64.2837 150.716 64.5034 151.395 64.7085C152.645 65.0845 153.555 65.5508 154.127 66.1074C154.698 66.6641 154.984 67.3574 154.984 68.1875C154.984 69.1104 154.634 69.8354 153.936 70.3628C153.238 70.8853 152.298 71.1465 151.116 71.1465C150.296 71.1465 149.549 70.9976 148.875 70.6997C148.201 70.397 147.686 69.9844 147.33 69.4619C146.978 68.9395 146.802 68.334 146.802 67.6455H149.007C149.007 68.8223 149.71 69.4106 151.116 69.4106C151.639 69.4106 152.047 69.3057 152.34 69.0957C152.633 68.8809 152.779 68.583 152.779 68.2021ZM160.973 61.127V63.0752H162.328V64.6279H160.973V68.583C160.973 68.876 161.029 69.0859 161.141 69.2129C161.254 69.3398 161.468 69.4033 161.786 69.4033C162.02 69.4033 162.228 69.3862 162.408 69.3521V70.9561C161.993 71.083 161.566 71.1465 161.127 71.1465C159.642 71.1465 158.885 70.397 158.856 68.8979V64.6279H157.699V63.0752H158.856V61.127H160.973ZM165.058 66.9644C165.058 66.1782 165.209 65.4775 165.512 64.8623C165.814 64.2471 166.249 63.771 166.815 63.4341C167.387 63.0972 168.048 62.9287 168.8 62.9287C169.87 62.9287 170.741 63.2559 171.415 63.9102C172.094 64.5645 172.472 65.4531 172.55 66.5762L172.565 67.1182C172.565 68.334 172.226 69.3105 171.547 70.0479C170.868 70.7803 169.958 71.1465 168.815 71.1465C167.672 71.1465 166.759 70.7803 166.076 70.0479C165.397 69.3154 165.058 68.3193 165.058 67.0596V66.9644ZM167.174 67.1182C167.174 67.8701 167.316 68.4463 167.599 68.8467C167.882 69.2422 168.288 69.4399 168.815 69.4399C169.328 69.4399 169.728 69.2446 170.016 68.854C170.304 68.4585 170.448 67.8286 170.448 66.9644C170.448 66.2271 170.304 65.6558 170.016 65.2505C169.728 64.8452 169.323 64.6426 168.8 64.6426C168.283 64.6426 167.882 64.8452 167.599 65.2505C167.316 65.6509 167.174 66.2734 167.174 67.1182ZM180.422 65.0601C180.134 65.021 179.88 65.0015 179.66 65.0015C178.859 65.0015 178.334 65.2725 178.085 65.8145V71H175.969V63.0752H177.968L178.027 64.02C178.452 63.2925 179.04 62.9287 179.792 62.9287C180.026 62.9287 180.246 62.9604 180.451 63.0239L180.422 65.0601ZM187.048 71.1465C185.886 71.1465 184.939 70.79 184.206 70.0771C183.479 69.3643 183.115 68.4146 183.115 67.228V67.0229C183.115 66.2271 183.269 65.5166 183.576 64.8916C183.884 64.2617 184.319 63.7783 184.88 63.4414C185.447 63.0996 186.091 62.9287 186.814 62.9287C187.898 62.9287 188.75 63.2705 189.37 63.9541C189.995 64.6377 190.307 65.6069 190.307 66.8618V67.7261H185.261C185.329 68.2437 185.534 68.6587 185.876 68.9712C186.223 69.2837 186.66 69.4399 187.187 69.4399C188.003 69.4399 188.64 69.1445 189.099 68.5537L190.139 69.7183C189.822 70.1675 189.392 70.519 188.85 70.7729C188.308 71.022 187.707 71.1465 187.048 71.1465ZM186.806 64.6426C186.387 64.6426 186.045 64.7842 185.781 65.0674C185.522 65.3506 185.356 65.7559 185.283 66.2832H188.227V66.1147C188.218 65.646 188.091 65.2847 187.846 65.0308C187.602 64.772 187.256 64.6426 186.806 64.6426Z" fill="white"/>
</g>
<defs>
<filter id="filter0_d_1423_2794" x="1.34473" y="18.5344" width="211.167" height="79.0001" filterUnits="userSpaceOnUse" color-interpolation-filters="sRGB">
<feFlood flood-opacity="0" result="BackgroundImageFix"/>
<feColorMatrix in="SourceAlpha" type="matrix" values="0 0 0 0 0 0 0 0 0 0 0 0 0 0 0 0 0 0 127 0" result="hardAlpha"/>
<feOffset dy="4"/>
<feGaussianBlur stdDeviation="2"/>
<feComposite in2="hardAlpha" operator="out"/>
<feColorMatrix type="matrix" values="0 0 0 0 0 0 0 0 0 0 0 0 0 0 0 0 0 0 0.25 0"/>
<feBlend mode="normal" in2="BackgroundImageFix" result="effect1_dropShadow_1423_2794"/>
<feBlend mode="normal" in="SourceGraphic" in2="effect1_dropShadow_1423_2794" result="shape"/>
</filter>
</defs>
</svg>
